<svg width="80" height="80" viewBox="0 0 80 80" fill="none" xmlns="http://www.w3.org/2000/svg">
<path d="M49.0333 29.0333C49.5034 28.5671 49.824 27.9714 49.9543 27.3223C50.0845 26.6731 50.0185 25.9999 49.7646 25.3884C49.5107 24.7769 49.0804 24.2549 48.5287 23.8889C47.977 23.5229 47.3287 23.3295 46.6667 23.3333H37.6L39.2667 16.6667H43.3333C44.2174 16.6667 45.0652 16.3155 45.6904 15.6904C46.3155 15.0652 46.6667 14.2174 46.6667 13.3333C46.6667 12.4493 46.3155 11.6014 45.6904 10.9763C45.0652 10.3512 44.2174 10 43.3333 10H39.2667C37.7783 10.0067 36.335 10.5113 35.1667 11.4333C33.9949 12.3469 33.162 13.6257 32.8 15.0667L30.7333 23.3333H13.3333C12.4493 23.3333 11.6014 23.6845 10.9763 24.3096C10.3512 24.9348 10 25.7826 10 26.6667C10 27.5507 10.3512 28.3986 10.9763 29.0237C11.6014 29.6488 12.4493 30 13.3333 30H46.6667C47.1054 30.0025 47.5402 29.9185 47.9464 29.7526C48.3525 29.5867 48.7219 29.3423 49.0333 29.0333ZM30 53.3333C30.0088 50.2307 30.6319 47.1606 31.8333 44.3C33.0348 41.4394 34.7908 38.8451 37 36.6667H14.3333L16.6667 66.9333C16.7307 67.7753 17.112 68.5616 17.7333 69.1333C18.3532 69.6968 19.1624 70.0062 20 70H37.0333C34.8181 67.8243 33.0559 65.2312 31.8487 62.3705C30.6415 59.5099 30.0132 56.4383 30 53.3333V53.3333ZM68.1667 45.7667C66.267 42.0528 63.0437 39.1863 59.1333 37.7333C60.7164 37.2382 62.1569 36.3693 63.3333 35.2C65.4538 32.8609 66.6401 29.8237 66.6667 26.6667C66.6502 26.2387 66.4728 25.8328 66.17 25.53C65.8672 25.2272 65.4613 25.0498 65.0333 25.0333C63.4744 24.9699 61.9194 25.231 60.4667 25.8C59.0267 26.412 57.7319 27.3206 56.6667 28.4667C54.6546 30.7249 53.5399 33.6421 53.5333 36.6667C49.3701 36.6189 45.3397 38.1312 42.2355 40.9058C39.1312 43.6804 37.1779 47.5164 36.7599 51.6589C36.3419 55.8014 37.4895 59.9503 39.9768 63.2892C42.4642 66.628 46.1111 68.915 50.2 69.7C54.2999 70.4709 58.5398 69.6763 62.0822 67.4731C65.6247 65.2698 68.2121 61.8182 69.3333 57.8C70.4518 53.7863 70.0482 49.5009 68.2 45.7667H68.1667Z" fill="#F5F5F5"/>
</svg>
