<svg width="54" height="53" viewBox="0 0 54 53" fill="none" xmlns="http://www.w3.org/2000/svg">
<path d="M19.0651 41.9584C18.41 41.9584 17.7695 42.1527 17.2248 42.5166C16.68 42.8806 16.2555 43.398 16.0048 44.0032C15.754 44.6085 15.6884 45.2745 15.8163 45.9171C15.9441 46.5597 16.2596 47.1499 16.7228 47.6132C17.1861 48.0764 17.7763 48.3919 18.4189 48.5197C19.0614 48.6475 19.7275 48.5819 20.3327 48.3312C20.938 48.0805 21.4554 47.6559 21.8193 47.1112C22.1833 46.5665 22.3776 45.926 22.3776 45.2709C22.3776 44.3923 22.0286 43.5498 21.4074 42.9286C20.7862 42.3074 19.9436 41.9584 19.0651 41.9584ZM38.9401 41.9584C38.285 41.9584 37.6445 42.1527 37.0998 42.5166C36.555 42.8806 36.1305 43.398 35.8798 44.0032C35.629 44.6085 35.5634 45.2745 35.6913 45.9171C35.8191 46.5597 36.1346 47.1499 36.5978 47.6132C37.0611 48.0764 37.6513 48.3919 38.2939 48.5197C38.9364 48.6475 39.6025 48.5819 40.2077 48.3312C40.813 48.0805 41.3304 47.6559 41.6943 47.1112C42.0583 46.5665 42.2526 45.926 42.2526 45.2709C42.2526 44.3923 41.9036 43.5498 41.2824 42.9286C40.6612 42.3074 39.8186 41.9584 38.9401 41.9584ZM48.0384 15.083C47.6296 14.5162 47.0922 14.0546 46.4703 13.7359C45.8484 13.4173 45.1597 13.2508 44.4609 13.25H14.8251L13.9197 9.89338C13.6663 8.95223 13.1087 8.12134 12.3338 7.53017C11.5589 6.939 10.6102 6.62076 9.63552 6.62504H6.91927C6.33358 6.62504 5.77189 6.85771 5.35774 7.27185C4.9436 7.68599 4.71094 8.24769 4.71094 8.83338C4.71094 9.41906 4.9436 9.98076 5.35774 10.3949C5.77189 10.809 6.33358 11.0417 6.91927 11.0417H9.63552L15.8851 34.185C16.1218 35.1426 16.6723 35.9933 17.4487 36.6017C18.2252 37.21 19.1829 37.5409 20.1693 37.5417H39.3155C40.2404 37.5379 41.1407 37.2439 41.8896 36.7011C42.6384 36.1583 43.1979 35.3941 43.4893 34.5163L48.6568 19.058C48.8758 18.3938 48.9339 17.687 48.8264 16.996C48.7189 16.3049 48.4489 15.6492 48.0384 15.083V15.083Z" fill="white"/>
</svg>
